<?xml version="1.0" encoding="UTF-8"?>
<svg width="110px" height="19px" viewBox="0 0 110 19" version="1.1" xmlns="http://www.w3.org/2000/svg" xmlns:xlink="http://www.w3.org/1999/xlink">
    <!-- Generator: Sketch 53.2 (72643) - https://sketchapp.com -->
    <title>ТЕХНОМАРТ</title>
    <desc>Created with Sketch.</desc>
    <g id="Pages" stroke="none" stroke-width="1" fill="none" fill-rule="evenodd">
        <g id="Index" transform="translate(-185.000000, -12.000000)" fill="#FFFFFF" fill-rule="nonzero">
            <g id="top-menu" transform="translate(-187.000000, -143.000000)">
                <path d="M376.08,172.999999 L376.08,157.88 L372.24,157.88 L372.24,156.2 L382.08,156.2 L382.08,157.88 L378.24,157.88 L378.24,172.999999 L376.08,172.999999 Z M384,172.999999 L384,156.2 L392.16,156.2 L392.16,157.88 L386.16,157.88 L386.16,163.4 L391.44,163.4 L391.44,165.08 L386.16,165.08 L386.16,171.32 L392.16,171.32 L392.16,172.999999 L384,172.999999 Z M393.48,172.999999 L397.079999,164.36 L393.84,156.2 L395.999999,156.2 L398.639999,162.92 L401.279999,156.2 L403.439999,156.2 L400.199999,164.36 L403.799999,172.999999 L401.639999,172.999999 L398.639999,165.8 L395.639999,172.999999 L393.48,172.999999 Z M405.839999,172.999999 L405.839999,156.2 L407.999999,156.2 L407.999999,163.64 L413.039999,163.64 L413.039999,156.2 L415.199999,156.2 L415.199999,172.999999 L413.039999,172.999999 L413.039999,165.32 L407.999999,165.32 L407.999999,172.999999 L405.839999,172.999999 Z M423.239999,173.239999 C422.103993,173.239999 421.160003,172.980002 420.407999,172.459999 C419.655995,171.939997 419.080001,171.044006 418.679999,169.772 C418.279997,168.499993 418.079999,166.77601 418.079999,164.6 C418.079999,162.423989 418.279997,160.700006 418.679999,159.428 C419.080001,158.155993 419.655995,157.260002 420.407999,156.74 C421.160003,156.219997 422.103993,155.96 423.239999,155.96 C424.376005,155.96 425.319995,156.219997 426.071999,156.74 C426.824003,157.260002 427.399997,158.155993 427.799999,159.428 C428.200001,160.700006 428.399999,162.423989 428.399999,164.6 C428.399999,166.77601 428.200001,168.499993 427.799999,169.772 C427.399997,171.044006 426.824003,171.939997 426.071999,172.459999 C425.319995,172.980002 424.376005,173.239999 423.239999,173.239999 Z M423.239999,171.799999 C425.240009,171.799999 426.239999,169.400024 426.239999,164.6 C426.239999,159.799976 425.240009,157.4 423.239999,157.4 C421.239989,157.4 420.239999,159.799976 420.239999,164.6 C420.239999,169.400024 421.239989,171.799999 423.239999,171.799999 Z M430.919999,172.999999 L431.879999,156.2 L434.519999,156.2 L438.431999,167.72 L438.527999,167.72 L442.439998,156.2 L445.079998,156.2 L446.039998,172.999999 L443.879998,172.999999 L443.159998,160.52 L443.039998,160.52 L439.559999,170.84 L437.399999,170.84 L433.919999,160.52 L433.799999,160.52 L433.079999,172.999999 L430.919999,172.999999 Z M447.839998,172.999999 L451.919998,156.2 L455.039998,156.2 L459.119998,172.999999 L456.959998,172.999999 L455.879998,168.68 L451.079998,168.68 L449.999998,172.999999 L447.839998,172.999999 Z M451.439998,167 L455.519998,167 L453.527998,158.6 L453.431998,158.6 L451.439998,167 Z M461.279998,156.44 C462.352003,156.119998 463.631991,155.96 465.119998,155.96 C466.432004,155.96 467.467994,156.143998 468.227998,156.512 C468.988002,156.880002 469.539996,157.495995 469.883998,158.36 C470.228,159.224004 470.399998,160.423992 470.399998,161.96 C470.399998,163.512007 470.239999,164.731995 469.919998,165.62 C469.599996,166.508004 469.108001,167.139998 468.443998,167.516 C467.779995,167.892001 466.912003,168.08 465.839998,168.08 C465.487996,168.08 465.08,168.056 464.615998,168.008 C464.151996,167.959999 463.76,167.904 463.439998,167.84 L463.439998,172.999999 L461.279998,172.999999 L461.279998,156.44 Z M465.119998,166.4 C465.872002,166.4 466.471996,166.268001 466.919998,166.004 C467.368,165.739998 467.699997,165.288003 467.915998,164.648 C468.131999,164.007996 468.239998,163.112005 468.239998,161.96 C468.239998,160.807994 468.131999,159.912003 467.915998,159.272 C467.699997,158.631997 467.368,158.180001 466.919998,157.916 C466.471996,157.651998 465.872002,157.52 465.119998,157.52 L463.439998,157.52 L463.439998,166.4 L465.119998,166.4 Z M475.439998,172.999999 L475.439998,157.88 L471.599998,157.88 L471.599998,156.2 L481.439998,156.2 L481.439998,157.88 L477.599998,157.88 L477.599998,172.999999 L475.439998,172.999999 Z" id="ТЕХНОМАРТ"></path>
            </g>
        </g>
    </g>
</svg>