<?xml version="1.0" encoding="UTF-8"?>
<svg width="137px" height="23px" viewBox="0 0 137 23" version="1.1" xmlns="http://www.w3.org/2000/svg" xmlns:xlink="http://www.w3.org/1999/xlink">
    <!-- Generator: Sketch 53.2 (72643) - https://sketchapp.com -->
    <title>ТЕХНОМАРТ</title>
    <desc>Created with Sketch.</desc>
    <g id="Pages" stroke="none" stroke-width="1" fill="none" fill-rule="evenodd">
        <g id="Index" transform="translate(-172.000000, -2872.000000)" fill="#FFFFFF" fill-rule="nonzero">
            <g id="footer" transform="translate(-360.000000, 2851.000000)">
                <path d="M537.1,43 L537.1,24.1 L532.3,24.1 L532.3,22 L544.6,22 L544.6,24.1 L539.8,24.1 L539.8,43 L537.1,43 Z M547,43 L547,22 L557.2,22 L557.2,24.1 L549.7,24.1 L549.7,31 L556.3,31 L556.3,33.1 L549.7,33.1 L549.7,40.9 L557.2,40.9 L557.2,43 L547,43 Z M558.85,43 L563.35,32.2 L559.3,22 L562,22 L565.3,30.4 L568.6,22 L571.3,22 L567.25,32.2 L571.75,43 L569.05,43 L565.3,34 L561.55,43 L558.85,43 Z M574.3,43 L574.3,22 L577,22 L577,31.3 L583.3,31.3 L583.3,22 L586,22 L586,43 L583.3,43 L583.3,33.4 L577,33.4 L577,43 L574.3,43 Z M596.05,43.3 C594.629993,43.3 593.450005,42.9750033 592.51,42.325 C591.569995,41.6749967 590.850002,40.555008 590.35,38.965 C589.849997,37.3749921 589.6,35.2200136 589.6,32.5 C589.6,29.7799864 589.849997,27.625008 590.35,26.035 C590.850002,24.4449921 591.569995,23.3250033 592.51,22.675 C593.450005,22.0249967 594.629993,21.7 596.05,21.7 C597.470007,21.7 598.649995,22.0249967 599.59,22.675 C600.530005,23.3250033 601.249998,24.4449921 601.75,26.035 C602.250002,27.625008 602.5,29.7799864 602.5,32.5 C602.5,35.2200136 602.250002,37.3749921 601.75,38.965 C601.249998,40.555008 600.530005,41.6749967 599.59,42.325 C598.649995,42.9750033 597.470007,43.3 596.05,43.3 Z M596.05,41.5 C598.550012,41.5 599.8,38.50003 599.8,32.5 C599.8,26.49997 598.550012,23.5 596.05,23.5 C593.549988,23.5 592.3,26.49997 592.3,32.5 C592.3,38.50003 593.549988,41.5 596.05,41.5 Z M605.65,43 L606.85,22 L610.15,22 L615.04,36.4 L615.16,36.4 L620.05,22 L623.35,22 L624.55,43 L621.85,43 L620.95,27.4 L620.8,27.4 L616.45,40.3 L613.75,40.3 L609.4,27.4 L609.25,27.4 L608.35,43 L605.65,43 Z M626.8,43 L631.9,22 L635.8,22 L640.9,43 L638.2,43 L636.85,37.6 L630.85,37.6 L629.5,43 L626.8,43 Z M631.3,35.5 L636.4,35.5 L633.91,25 L633.79,25 L631.3,35.5 Z M643.6,22.3 C644.940007,21.899998 646.539991,21.7 648.4,21.7 C650.040008,21.7 651.334995,21.9299977 652.285,22.39 C653.235005,22.8500023 653.924998,23.6199946 654.355,24.7 C654.785002,25.7800054 655,27.2799904 655,29.2 C655,31.1400097 654.800002,32.6649945 654.4,33.775 C653.999998,34.8850056 653.385004,35.6749977 652.555,36.145 C651.724996,36.6150023 650.640007,36.85 649.3,36.85 C648.859998,36.85 648.350003,36.8200003 647.77,36.76 C647.189997,36.6999997 646.700002,36.6300004 646.3,36.55 L646.3,43 L643.6,43 L643.6,22.3 Z M648.4,34.75 C649.340005,34.75 650.089997,34.5850017 650.65,34.255 C651.210003,33.9249983 651.624999,33.360004 651.895,32.56 C652.165001,31.759996 652.3,30.6400072 652.3,29.2 C652.3,27.7599928 652.165001,26.640004 651.895,25.84 C651.624999,25.039996 651.210003,24.4750016 650.65,24.145 C650.089997,23.8149983 649.340005,23.65 648.4,23.65 L646.3,23.65 L646.3,34.75 L648.4,34.75 Z M661.3,43 L661.3,24.1 L656.5,24.1 L656.5,22 L668.8,22 L668.8,24.1 L664,24.1 L664,43 L661.3,43 Z" id="ТЕХНОМАРТ"></path>
            </g>
        </g>
    </g>
</svg>